<svg width="16" height="16" viewBox="0 0 16 16" fill="none" xmlns="http://www.w3.org/2000/svg">
<path d="M12.998 5.326L8.00001 10.198L3.00202 5.326C2.91272 5.23877 2.79284 5.18993 2.66801 5.18993C2.54319 5.18993 2.42331 5.23877 2.33402 5.326C2.29078 5.36836 2.25643 5.41893 2.23298 5.47474C2.20953 5.53054 2.19745 5.59047 2.19745 5.651C2.19745 5.71153 2.20953 5.77146 2.23298 5.82726C2.25643 5.88307 2.29078 5.93364 2.33402 5.976L7.65101 11.16C7.74439 11.251 7.86962 11.302 8.00001 11.302C8.13041 11.302 8.25564 11.251 8.34901 11.16L13.666 5.977C13.7096 5.9346 13.7442 5.88391 13.7678 5.82792C13.7914 5.77193 13.8036 5.71177 13.8036 5.651C13.8036 5.59023 13.7914 5.53007 13.7678 5.47408C13.7442 5.41809 13.7096 5.3674 13.666 5.325C13.5767 5.23777 13.4568 5.18893 13.332 5.18893C13.2072 5.18893 13.0873 5.23777 12.998 5.325V5.326Z" fill="#303030" fill-opacity="0.8"/>
</svg>
